<svg version="1.1" xmlns="http://www.w3.org/2000/svg" xmlns:xlink="http://www.w3.org/1999/xlink" viewBox="0 0 172 172"><g fill="none" fill-rule="nonzero" stroke="none" stroke-width="1" stroke-linecap="butt" stroke-linejoin="miter" stroke-miterlimit="10" stroke-dasharray="" stroke-dashoffset="0" font-family="none" font-weight="none" font-size="none" text-anchor="none" style="mix-blend-mode: normal"><path d="M0,172v-172h172v172z" fill="none"></path><g><path d="M152.77183,134.41083l12.0615,-105.8445l-78.83333,-28.56633l-78.83333,28.56633l12.06867,105.8445l66.76467,37.58917l66.77183,-37.58917zM55.126,131.22883h-18.47567l49.34967,-112.23l49.39267,112.23h-18.43983l-9.94017,-25.112h-41.9465l-9.94017,25.112z" fill="#c2002e"></path><path d="M71.54483,90.644h28.91033l-14.45517,-35.16683z" fill="#c2002e"></path><path d="M86,18.99883l-49.34967,112.23h18.47567l9.94017,-25.112h20.93383v-15.47283h-14.45517l14.45517,-35.16683z" fill="#ffffff"></path><path d="M86,0l-78.83333,28.56633l12.06867,105.8445l66.76467,37.58917v-65.88317h-20.93383l-9.94017,25.112h-18.47567l49.34967,-112.23z" fill="#a2062c"></path><path d="M86,55.47717l-14.45517,35.16683h14.45517z" fill="#a2062c"></path></g></g></svg>