<svg width="78mm" height="150mm" version="1.1" viewBox="0 0 78 150" xmlns="http://www.w3.org/2000/svg">
 <defs>
  <filter id="filter2733" x="-.027894" y="-.63924" width="1.0558" height="2.2785" color-interpolation-filters="sRGB">
   <feGaussianBlur stdDeviation="1.642341"/>
  </filter>
  <radialGradient id="radialGradient4711" cx="79.211" cy="299.71" r="74.595" gradientTransform="matrix(1 0 0 .094171 0 271.49)" gradientUnits="userSpaceOnUse">
   <stop stop-color="#1a1a1a" offset="0"/>
   <stop stop-color="#1a1a1a" stop-opacity="0" offset="1"/>
  </radialGradient>
 </defs>
 <path d="m4.0027 13.594v117.64s0 10.204 8.791 10.204c4.975 0 35.009 1e-5 50.898 0 9.0225 0 9.0225-10.204 9.0225-10.204v-117.64s5e-6 -10.804-9.0225-10.804h-50.898c-8.791 0-8.791 10.804-8.791 10.804z" fill="#e6e6e6" stroke="#b7b7b7" stroke-width=".20916"/>
 <path d="m4.9542 14.4v116.18s0 10.076 8.5448 10.076h49.471c8.7697 0 8.7697-10.076 8.7697-10.076v-116.18s0-10.669-8.7697-10.669h-49.471c-8.5448 0-8.5448 10.669-8.5448 10.669z" fill="#f2f2f2" stroke-width=".47514"/>
 <path d="m7.2283 16.803v111.62s0 9.6812 7.9481 9.6812h46.014c8.157 0 8.157-9.6812 8.157-9.6812v-111.62s5e-6 -10.251-8.157-10.251h-46.014c-7.9481 0-7.9481 10.251-7.9481 10.251z" fill="#fff" stroke="#616161" stroke-width=".026458"/>
 <path d="m20.413 6.5621 0.23104 3.2701s0.79094 3.2482 3.7739 3.2482h29.331c3.2314 0 3.7587-2.6468 3.7587-2.6468l0.43944-3.8829z" fill="#f2f2f2" stroke="#b5b5b5" stroke-linecap="round" stroke-linejoin="bevel" stroke-width=".023696" style="mix-blend-mode:normal;paint-order:normal"/>
 <rect x="31.604" y="8.465" width="12.918" height="1.8538" ry=".9269" fill="#666" fill-rule="evenodd" stroke="#000" stroke-width=".070242"/>
 <path d="m32.289 8.585 1.4104 1.7499 1.6577-1.8528 1.732 1.8271 1.7567-1.7756 2.0784 1.776 1.8804-1.776 0.94021 1.7242 0.59455-1.4243-1.8811 1.5015-1.831-1.7756-1.4351 1.7242-2.3011-1.8014-1.6331 1.8271-1.4351-1.8271-1.3856 1.7756-0.76704-0.87493z" fill="none" stroke="#1f0505" stroke-width=".049905px"/>
 <g fill-rule="evenodd">
  <g transform="matrix(.47246 0 0 .47784 1.4085 1.402)">
   <path d="m105.57 12.94a3.2135 3.3106 0 0 1 1.8532 4.2621 3.2135 3.3106 0 0 1-4.1278 1.9304 3.2135 3.3106 0 0 1-1.8944-4.2428 3.2135 3.3106 0 0 1 4.109-1.9727" fill="#161616" stop-color="#000000" style="font-variation-settings:normal"/>
   <path d="m105.24 13.842a2.3706 2.344 0 0 1 1.3671 3.0177 2.3706 2.344 0 0 1-3.045 1.3668 2.3706 2.344 0 0 1-1.3975-3.0041 2.3706 2.344 0 0 1 3.0311-1.3968" stop-color="#000000" stroke="#000" stroke-width=".090958" style="font-variation-settings:normal"/>
   <path d="m105.16 13.986a2.1999 2.1899 0 0 1 1.2687 2.8193 2.1999 2.1899 0 0 1-2.8258 1.277 2.1999 2.1899 0 0 1-1.2969-2.8066 2.1999 2.1899 0 0 1 2.8129-1.305" fill="#091427" stop-color="#000000" style="font-variation-settings:normal"/>
   <path d="m105.49 14.059a0.94535 1.5935 0 0 1 0.54518 2.0515 0.94535 1.5935 0 0 1-1.2143 0.92919 0.94535 1.5935 0 0 1-0.55729-2.0422 0.94535 1.5935 0 0 1 1.2088-0.94956" fill="#00f" stop-color="#000000" style="font-variation-settings:normal"/>
   <path d="m102.76 14.822a0.36807 1.2585 0 0 1 0.21227 1.6202 0.36807 1.2585 0 0 1-0.47279 0.73382 0.36807 1.2585 0 0 1-0.21698-1.6128 0.36807 1.2585 0 0 1 0.47062-0.74991" fill="#00f" stop-color="#000000" style="font-variation-settings:normal"/>
   <rect x="151.14" y="58.321" width="2.2641" height="38.643" ry=".8827" fill="#808080" stroke-width=".15533"/>
   <g fill="#999" stroke-width=".13356">
    <rect x="2.67" y="47.497" width="2.6304" height="19.418" ry=".8827"/>
    <rect x="2.67" y="69.58" width="2.6304" height="19.418" ry=".8827"/>
    <rect x="2.67" y="91.87" width="2.6304" height="19.418" ry=".8827"/>
   </g>
   <g fill="#b3b3b3">
    <rect x="5.4906" y="25.515" width="2.0657" height="7.0015" ry="0" stroke-width=".13356"/>
    <rect x="148.91" y="24.933" width="1.9146" height="7.5837" stroke-width=".13902"/>
    <g stroke-width=".13356">
     <rect x="149.01" y="251.89" width="1.86" height="6.9949"/>
     <rect x="5.7893" y="252.77" width="1.767" height="6.1121"/>
     <rect x="32.231" y="291.61" width="6.2019" height="1.275"/>
    </g>
    <rect x="116.65" y="291.49" width="6.5982" height="1.3437" stroke-width=".15632"/>
    <rect x="115.81" y="3.0915" width="7.4352" height="1.7765" stroke-width=".1421"/>
    <rect x="32.231" y="3.16" width="6.8529" height="1.6673" stroke-width=".13356"/>
   </g>
  </g>
  <rect transform="matrix(.46078 0 0 .4841 2.2648 .048256)" x="8.5582" y="296.63" width="141.31" height="6.1661" ry="0" fill="url(#radialGradient4711)" filter="url(#filter2733)" stroke-width=".26458" style="mix-blend-mode:normal"/>
  <rect x="20.414" y="6.4198" width="37.532" height=".25215" ry=".0063654" fill="#f2f2f2" stroke-width="1.1171"/>
 </g>
</svg>
